<?xml version="1.0" encoding="utf-8"?>
<svg xmlns="http://www.w3.org/2000/svg" style="margin: auto; background: rgb(23, 37, 84); display: block; shape-rendering: auto;" width="265" height="78" preserveAspectRatio="xMidYMid">
<style type="text/css">
  text {
    text-anchor: middle; font-size: 67px; opacity: 0;
  }
</style>
<g style="transform-origin: 132.5px 39px; transform: scale(0.8375);">
<g transform="translate(132.5,39)">
  <g transform="translate(0,0)"><g class="path" style="transform: scale(0.91); transform-origin: -101.4px 2.02515px; animation: 0.854701s linear -0.483516s infinite normal forwards running breath-86b0135c-6923-4e08-8222-eca8b7413289;"><path d="M17.16-14.56L17.16-14.56L17.16-14.56Q14.96-16.24 13.28-19.68L13.28-19.68L13.28-19.68Q11.60-23.12 11.60-27.44L11.60-27.44L11.60-27.44Q11.60-31.76 12.96-35.44L12.96-35.44L12.96-35.44Q14.32-39.12 17-42.12L17-42.12L17-42.12Q19.68-45.12 24.16-46.92L24.16-46.92L24.16-46.92Q28.64-48.72 33.68-48.72L33.68-48.72L33.68-48.72Q38.72-48.72 42.80-47.96L42.80-47.96L42.80-47.96Q46.88-47.20 49.20-46.36L49.20-46.36L49.20-46.36Q51.52-45.52 53.32-44.76L53.32-44.76L53.32-44.76Q55.12-44 56.24-43.56L56.24-43.56L56.24-43.56Q57.36-43.12 57.60-43.04L57.60-43.04L57.60-43.04Q57.84-42.96 58.88-42.56L58.88-42.56L58.88-42.56Q59.92-42.16 60.28-42.08L60.28-42.08L60.28-42.08Q60.64-42 61.56-41.68L61.56-41.68L61.56-41.68Q62.48-41.36 63-41.28L63-41.28L63-41.28Q63.52-41.20 64.40-41L64.40-41L64.40-41Q65.28-40.80 65.92-40.76L65.92-40.76L65.92-40.76Q66.56-40.72 67.44-40.64L67.44-40.64L67.44-40.64Q68.32-40.56 69.12-40.56L69.12-40.56L69.12-40.56Q73.04-40.56 75.96-41.88L75.96-41.88L75.96-41.88Q78.88-43.20 80.20-44.80L80.20-44.80L80.20-44.80Q81.52-46.40 82.32-48.48L82.32-48.48L82.32-48.48Q83.28-51.04 83.28-53.12L83.28-53.12L85.04-53.12L85.04-53.12Q85.04-51.20 84.04-48.44L84.04-48.44L84.04-48.44Q83.04-45.68 81.56-43.80L81.56-43.80L81.56-43.80Q80.08-41.92 76.80-40.40L76.80-40.40L76.80-40.40Q73.52-38.88 69-38.88L69-38.88L69-38.88Q64.48-38.88 59.92-40.32L59.92-40.32L59.92-40.32Q54.48-32.64 48.48-9.36L48.48-9.36L48.48-9.36Q45.52 2.32 39.96 7.64L39.96 7.64L39.96 7.64Q34.40 12.96 23.88 12.96L23.88 12.96L23.88 12.96Q13.36 12.96 8.16 6.56L8.16 6.56L8.16 6.56Q3.60 0.88 3.60-6.64L3.60-6.64L3.60-6.64Q3.60-7.60 3.68-8.56L3.68-8.56L5.52-8.56L5.52-7.44L5.52-7.44Q5.52-1.92 8.48 3.36L8.48 3.36L8.48 3.36Q9.76 5.60 11.56 7.24L11.56 7.24L11.56 7.24Q13.36 8.88 16.40 10L16.40 10L16.40 10Q19.44 11.12 23.20 11.12L23.20 11.12L23.20 11.12Q29.44 11.12 33.08 6.08L33.08 6.08L33.08 6.08Q36.72 1.04 40.12-13.40L40.12-13.40L40.12-13.40Q43.52-27.84 47.08-34.04L47.08-34.04L47.08-34.04Q50.64-40.24 57.44-41.20L57.44-41.20L57.44-41.20Q55.36-42 53.04-43L53.04-43L53.04-43Q50.72-44 48.60-44.76L48.60-44.76L48.60-44.76Q46.48-45.52 42.52-46.28L42.52-46.28L42.52-46.28Q38.56-47.04 33.68-47.04L33.68-47.04L33.68-47.04Q28.80-47.04 24.60-45.28L24.60-45.28L24.60-45.28Q20.40-43.52 18.08-40.64L18.08-40.64L18.08-40.64Q13.44-35.04 13.44-27.68L13.44-27.68L13.44-27.68Q13.44-23.52 14.96-20.36L14.96-20.36L14.96-20.36Q16.48-17.20 18.64-15.68L18.64-15.68L18.64-15.68Q23.04-12.72 26.64-12.32L26.64-12.32L28.16-12.16L27.68-10.40L27.68-10.40Q25.68-10.40 22.52-11.64L22.52-11.64L22.52-11.64Q19.36-12.88 17.16-14.56" fill="#ffffff" stroke="none" stroke-width="none" transform="translate(-145.72003173828125,22.10514372689383)" style="fill: rgb(255, 255, 255);"></path></g><g class="path" style="transform: scale(0.91); transform-origin: -52.04px 6.90514px; animation: 0.854701s linear -0.40293s infinite normal forwards running breath-86b0135c-6923-4e08-8222-eca8b7413289;"><path d="M97.20-31.12L97.20-31.12L97.20-31.12Q107.36-31.12 107.36-23.04L107.36-23.04L107.36-23.04Q107.36-18 102.60-15.40L102.60-15.40L102.60-15.40Q97.84-12.80 89.04-12.72L89.04-12.72L89.04-12.72Q88.88-9.84 88.88-8.16L88.88-8.16L88.88-8.16Q88.88-4.56 90.52-2.84L90.52-2.84L90.52-2.84Q92.16-1.12 94.64-1.12L94.64-1.12L94.64-1.12Q97.12-1.12 99.16-2.08L99.16-2.08L99.16-2.08Q101.20-3.04 102.40-4.36L102.40-4.36L102.40-4.36Q103.60-5.68 104.48-7.12L104.48-7.12L104.48-7.12Q106.08-9.76 106.08-10.48L106.08-10.48L107.52-9.84L107.52-9.84Q107.28-8.56 106.08-6.44L106.08-6.44L106.08-6.44Q104.88-4.32 103.44-2.96L103.44-2.96L103.44-2.96Q102-1.60 99.20-0.44L99.20-0.44L99.20-0.44Q96.40 0.72 92.96 0.72L92.96 0.72L92.96 0.72Q86.48 0.72 83.16-2.36L83.16-2.36L83.16-2.36Q79.84-5.44 79.84-10.80L79.84-10.80L79.84-10.80Q79.84-20.32 84.56-25.72L84.56-25.72L84.56-25.72Q89.28-31.12 97.20-31.12zM105.36-23.04L105.36-23.04Q105.36-25.68 103.80-27.40L103.80-27.40L103.80-27.40Q102.24-29.12 99.16-29.12L99.16-29.12L99.16-29.12Q96.08-29.12 93.16-25.44L93.16-25.44L93.16-25.44Q90.24-21.76 89.28-14.56L89.28-14.56L89.28-14.56Q105.36-14.64 105.36-23.04L105.36-23.04" fill="#ffffff" stroke="none" stroke-width="none" transform="translate(-145.72003173828125,22.10514372689383)" style="fill: rgb(255, 255, 255);"></path></g><g class="path" style="transform: scale(0.91); transform-origin: -17.84px 6.90514px; animation: 0.854701s linear -0.322344s infinite normal forwards running breath-86b0135c-6923-4e08-8222-eca8b7413289;"><path d="M132.32-15.20L136.48-5.04L136.48-5.04Q137.44-2.56 139.56-2.56L139.56-2.56L139.56-2.56Q141.68-2.56 143.12-5.28L143.12-5.28L144.40-4.56L144.40-4.56Q143.60-3.20 143-2.44L143-2.44L143-2.44Q142.40-1.68 140.68-0.84L140.68-0.84L140.68-0.84Q138.96 0 136.48 0L136.48 0L136.48 0Q129.44 0 127.04-5.92L127.04-5.92L124.00-13.28L124.00-13.28Q119.28-12.80 116.40-10.88L116.40-10.88L116.48-10.88L116.48-10.88Q118.88-10.88 120.56-9.20L120.56-9.20L120.56-9.20Q122.24-7.52 122.24-5.12L122.24-5.12L122.24-5.12Q122.24-2.72 120.56-1L120.56-1L120.56-1Q118.88 0.72 116.48 0.72L116.48 0.72L116.48 0.72Q114.08 0.72 112.36-1L112.36-1L112.36-1Q110.64-2.72 110.64-5.12L110.64-5.12L110.64-5.12Q110.64-9.04 114.28-11.80L114.28-11.80L114.28-11.80Q117.92-14.56 123.28-15.12L123.28-15.12L118.88-26.08L118.88-26.08Q117.92-28.56 115.88-28.56L115.88-28.56L115.88-28.56Q113.84-28.56 112.24-25.84L112.24-25.84L111.04-26.56L111.04-26.56Q111.84-27.92 112.44-28.68L112.44-28.68L112.44-28.68Q113.04-29.44 114.76-30.28L114.76-30.28L114.76-30.28Q116.48-31.12 118.96-31.12L118.96-31.12L118.96-31.12Q125.92-31.12 128.32-25.20L128.32-25.20L131.60-17.04L131.60-17.04Q136.56-17.52 139.36-19.52L139.36-19.52L139.28-19.52L139.28-19.52Q136.88-19.52 135.20-21.20L135.20-21.20L135.20-21.20Q133.52-22.88 133.52-25.28L133.52-25.28L133.52-25.28Q133.52-27.68 135.20-29.40L135.20-29.40L135.20-29.40Q136.88-31.12 139.28-31.12L139.28-31.12L139.28-31.12Q141.68-31.12 143.40-29.40L143.40-29.40L143.40-29.40Q145.12-27.68 145.12-25.28L145.12-25.28L145.12-25.28Q145.12-21.20 141.36-18.44L141.36-18.44L141.36-18.44Q137.60-15.68 132.32-15.20L132.32-15.20" fill="#ffffff" stroke="none" stroke-width="none" transform="translate(-145.72003173828125,22.10514372689383)" style="fill: rgb(255, 255, 255);"></path></g><g class="path" style="transform: scale(0.91); transform-origin: 15.64px 0.985146px; animation: 0.854701s linear -0.241758s infinite normal forwards running breath-86b0135c-6923-4e08-8222-eca8b7413289;"><path d="M149.68-30.40L153.76-30.40L155.92-42.24L155.92-42.24Q161.84-42.24 164.72-42.72L164.72-42.72L165.76-42.96L165.76-42.96Q164.64-37.36 163.28-30.40L163.28-30.40L173.20-30.40L173.04-28.96L163.04-28.96L163.04-28.96Q159.04-8.32 159.04-4.08L159.04-4.08L159.04-4.08Q159.04-1.52 161.76-1.52L161.76-1.52L161.76-1.52Q164.48-1.52 166.72-4.96L166.72-4.96L166.72-4.96Q168.96-8.40 169.92-12.40L169.92-12.40L171.36-11.92L171.36-11.92Q168.40 0.72 159.12 0.72L159.12 0.72L159.12 0.72Q155.28 0.72 152.72-1.40L152.72-1.40L152.72-1.40Q150.16-3.52 150.16-7.32L150.16-7.32L150.16-7.32Q150.16-11.12 153.44-28.96L153.44-28.96L149.52-28.96L149.68-30.40" fill="#ffffff" stroke="none" stroke-width="none" transform="translate(-145.72003173828125,22.10514372689383)" style="fill: rgb(255, 255, 255);"></path></g><g class="path" style="transform: scale(0.91); transform-origin: 50.2px 3.58514px; animation: 0.854701s linear -0.161172s infinite normal forwards running breath-86b0135c-6923-4e08-8222-eca8b7413289;"><path d="M183.36 5.76L183.36 5.76Q180.80 3.36 178.48 2.12L178.48 2.12L178.48 2.12Q176.16 0.88 172.84 0.88L172.84 0.88L172.84 0.88Q169.52 0.88 167.56 2.12L167.56 2.12L167.56 2.12Q165.60 3.36 165.60 5.64L165.60 5.64L165.60 5.64Q165.60 7.92 168.20 9.32L168.20 9.32L168.20 9.32Q170.80 10.72 174.32 10.72L174.32 10.72L174.32 10.72Q177.84 10.72 180.56 10.08L180.56 10.08L180.56 10.08Q182.16 8.64 183.36 5.76L183.36 5.76zM196.88 13.88L196.88 13.88L196.88 13.88Q198.24 14.32 199.76 14.48L199.76 14.48L199.76 14.48Q201.28 14.64 203.80 14.64L203.80 14.64L203.80 14.64Q206.32 14.64 208.96 13.28L208.96 13.28L208.96 13.28Q211.60 11.92 213.16 10.12L213.16 10.12L213.16 10.12Q214.72 8.32 215.92 6.08L215.92 6.08L215.92 6.08Q217.44 3.44 218.16 0.80L218.16 0.80L220.08 1.44L220.08 1.44Q218 8.24 213.48 12.24L213.48 12.24L213.48 12.24Q208.96 16.24 202.96 16.24L202.96 16.24L202.96 16.24Q198.24 16.24 196.44 15.56L196.44 15.56L196.44 15.56Q194.64 14.88 193.84 14.68L193.84 14.68L193.84 14.68Q193.04 14.48 191.72 13.48L191.72 13.48L191.72 13.48Q190.40 12.48 190.16 12.32L190.16 12.32L190.16 12.32Q189.52 11.84 186.88 9.20L186.88 9.20L186.88 9.20Q181.76 12.24 175.84 12.24L175.84 12.24L175.84 12.24Q169.92 12.24 166.80 10.36L166.80 10.36L166.80 10.36Q163.68 8.48 163.68 5.64L163.68 5.64L163.68 5.64Q163.68 2.80 165.96 1.08L165.96 1.08L165.96 1.08Q168.24-0.64 172.80-0.64L172.80-0.64L172.80-0.64Q179.04-0.64 184 4L184 4L184 4Q184.96 1.04 185.60-2.56L185.60-2.56L190.96-33.52L190.96-33.52Q192.88-45.52 199.28-49.68L199.28-49.68L199.28-49.68Q204.88-53.28 212-53.28L212-53.28L212-53.28Q219.12-53.28 223.64-49.20L223.64-49.20L223.64-49.20Q228.16-45.12 228.16-36.32L228.16-36.32L226.24-36.32L226.24-36.32Q226.24-43.44 222.84-47.16L222.84-47.16L222.84-47.16Q219.44-50.88 214.24-50.88L214.24-50.88L214.24-50.88Q204.72-50.88 202.96-39.04L202.96-39.04L202.96-39.04Q202.96-37.76 200.92-25.88L200.92-25.88L200.92-25.88Q198.88-14 197.28-6.24L197.28-6.24L197.28-6.24Q195.60 3.12 188.32 8.24L188.32 8.24L188.32 8.24Q192.64 12.56 194.72 13.20L194.72 13.20L194.72 13.20Q195.52 13.44 196.88 13.88" fill="#ffffff" stroke="none" stroke-width="none" transform="translate(-145.72003173828125,22.10514372689383)" style="fill: rgb(255, 255, 255);"></path></g><g class="path" style="transform: scale(0.91); transform-origin: 94.92px 6.90514px; animation: 0.854701s linear -0.0805861s infinite normal forwards running breath-86b0135c-6923-4e08-8222-eca8b7413289;"><path d="M251.60 0.72L251.60 0.72L251.60 0.72Q244.56 0.72 243.92-5.44L243.92-5.44L243.92-5.44Q240.40 0.72 235.04 0.72L235.04 0.72L235.04 0.72Q229.68 0.72 226.52-2.52L226.52-2.52L226.52-2.52Q223.36-5.76 223.36-11.60L223.36-11.60L223.36-11.60Q223.36-20.72 227.84-25.92L227.84-25.92L227.84-25.92Q232.32-31.12 239.44-31.12L239.44-31.12L239.44-31.12Q245.28-31.12 247.20-25.60L247.20-25.60L247.20-25.60Q247.60-28 248.08-30.40L248.08-30.40L248.08-30.40Q254-30.40 256.88-30.88L256.88-30.88L257.92-31.12L252.40-0.88L252.40-0.88Q254.80-1.12 256.40-3.12L256.40-3.12L257.60-2.16L257.60-2.16Q255.20 0.72 251.60 0.72zM232.40-7.52L232.40-7.52Q232.40-3.92 233.32-2.52L233.32-2.52L233.32-2.52Q234.24-1.12 236.16-1.12L236.16-1.12L236.16-1.12Q238.08-1.12 240.08-3.20L240.08-3.20L240.08-3.20Q242.72-5.92 244.32-10.08L244.32-10.08L244.32-10.08Q244.56-11.12 245.24-15.08L245.24-15.08L245.24-15.08Q245.92-19.04 246.40-21.60L246.40-21.60L246.40-21.60Q246.16-24.64 244.72-26.88L244.72-26.88L244.72-26.88Q243.28-29.12 241.12-29.12L241.12-29.12L241.12-29.12Q237.20-29.12 234.80-22.12L234.80-22.12L234.80-22.12Q232.40-15.12 232.40-7.52L232.40-7.52" fill="#ffffff" stroke="none" stroke-width="none" transform="translate(-145.72003173828125,22.10514372689383)" style="fill: rgb(255, 255, 255);"></path></g><g class="path" style="transform: scale(0.91); transform-origin: 132.32px -2.73486px; animation: 0.854701s linear 0s infinite normal forwards running breath-86b0135c-6923-4e08-8222-eca8b7413289;"><path d="M276.64 0.72L276.64 0.72L276.64 0.72Q271.60 0.72 269.28-2.64L269.28-2.64L262.56 2.16L261.04 2.16L270-50.24L270-50.24Q267.60-50 266-48L266-48L264.80-48.96L264.80-48.96Q267.20-51.84 270.84-51.84L270.84-51.84L270.84-51.84Q274.48-51.84 276.48-50L276.48-50L276.48-50Q278.48-48.16 278.48-44.80L278.48-44.80L278.48-44.80Q278.48-44.16 278.32-42.72L278.32-42.72L278.32-42.72Q277.04-35.60 275.20-25.60L275.20-25.60L275.20-25.60Q278.56-31.04 283.92-31.04L283.92-31.04L283.92-31.04Q289.28-31.04 292.16-27.96L292.16-27.96L292.16-27.96Q295.04-24.88 295.04-19.52L295.04-19.52L295.04-19.52Q295.04-10.08 289.92-4.68L289.92-4.68L289.92-4.68Q284.80 0.72 276.64 0.72zM276.08-1.44L276.08-1.44L276.08-1.44Q280.48-1.44 283.24-7.56L283.24-7.56L283.24-7.56Q286-13.68 286-22.80L286-22.80L286-22.80Q286-26.48 285.24-27.84L285.24-27.84L285.24-27.84Q284.48-29.20 282.48-29.20L282.48-29.20L282.48-29.20Q280.48-29.20 278.36-26.80L278.36-26.80L278.36-26.80Q276.24-24.40 275.28-22.28L275.28-22.28L275.28-22.28Q274.32-20.16 274.32-19.84L274.32-19.84L274.16-19.84L274.16-19.84Q272.16-9.36 271.20-4L271.20-4L271.20-4Q272.56-1.44 276.08-1.44" fill="#ffffff" stroke="none" stroke-width="none" transform="translate(-145.72003173828125,22.10514372689383)" style="fill: rgb(255, 255, 255);"></path></g></g>
</g>
</g>
<style id="breath-86b0135c-6923-4e08-8222-eca8b7413289" data-anikit="">@keyframes breath-86b0135c-6923-4e08-8222-eca8b7413289
{
  0% {
    animation-timing-function: cubic-bezier(0.9647,0.2413,-0.0705,0.7911);
    transform: scale(0.9099999999999999);
  }
  51% {
    animation-timing-function: cubic-bezier(0.9226,0.2631,-0.0308,0.7628);
    transform: scale(1.02994);
  }
  100% {
    transform: scale(0.9099999999999999);
  }
}</style></svg>