<svg width="24" height="24" viewBox="0 0 24 24" fill="none" xmlns="http://www.w3.org/2000/svg">
<path d="M7.25391 3.00201C6.52456 3.00201 5.82509 3.29175 5.30936 3.80747C4.79364 4.3232 4.50391 5.02267 4.50391 5.75201V18.252C4.50391 18.9814 4.79364 19.6808 5.30936 20.1966C5.82509 20.7123 6.52456 21.002 7.25391 21.002H14.0009C13.8251 20.4784 13.7294 19.9312 13.7169 19.379L13.5989 19.502H7.25391C6.56391 19.502 6.00391 18.942 6.00391 18.252V5.75201C6.00391 5.06201 6.56391 4.50201 7.25391 4.50201H16.7539C17.4439 4.50201 18.0039 5.06201 18.0039 5.75201V13.883C18.4958 13.7727 19.0005 13.7303 19.5039 13.757V5.75201C19.5039 5.02267 19.2142 4.3232 18.6985 3.80747C18.1827 3.29175 17.4833 3.00201 16.7539 3.00201H7.25391Z" fill="#7C8A9C"/>
<path d="M15.9967 8.16309C15.9967 8.362 15.9177 8.55276 15.777 8.69342C15.6364 8.83407 15.4456 8.91309 15.2467 8.91309H8.76172C8.56281 8.91309 8.37204 8.83407 8.23139 8.69342C8.09074 8.55276 8.01172 8.362 8.01172 8.16309C8.01172 7.96417 8.09074 7.77341 8.23139 7.63276C8.37204 7.4921 8.56281 7.41309 8.76172 7.41309H15.2477C15.4466 7.41309 15.6374 7.4921 15.778 7.63276C15.9187 7.77341 15.9967 7.96417 15.9967 8.16309ZM15.2467 12.6621C15.4456 12.6621 15.6364 12.5831 15.777 12.4424C15.9177 12.3018 15.9967 12.111 15.9967 11.9121C15.9967 11.7132 15.9177 11.5224 15.777 11.3818C15.6364 11.2411 15.4456 11.1621 15.2467 11.1621H8.76172C8.56281 11.1621 8.37204 11.2411 8.23139 11.3818C8.09074 11.5224 8.01172 11.7132 8.01172 11.9121C8.01172 12.111 8.09074 12.3018 8.23139 12.4424C8.37204 12.5831 8.56281 12.6621 8.76172 12.6621H15.2467ZM10.7617 16.4121C10.9606 16.4121 11.1514 16.3331 11.292 16.1924C11.4327 16.0518 11.5117 15.861 11.5117 15.6621C11.5117 15.4632 11.4327 15.2724 11.292 15.1318C11.1514 14.9911 10.9606 14.9121 10.7617 14.9121H8.76172C8.56281 14.9121 8.37204 14.9911 8.23139 15.1318C8.09074 15.2724 8.01172 15.4632 8.01172 15.6621C8.01172 15.861 8.09074 16.0518 8.23139 16.1924C8.37204 16.3331 8.56281 16.4121 8.76172 16.4121H10.7617ZM19.9657 16.2561C19.9657 16.0572 19.8867 15.8664 19.746 15.7258C19.6054 15.5851 19.4146 15.5061 19.2157 15.5061C19.0168 15.5061 18.826 15.5851 18.6854 15.7258C18.5447 15.8664 18.4657 16.0572 18.4657 16.2561V18.5411H16.2497C16.0508 18.5411 15.86 18.6201 15.7194 18.7608C15.5787 18.9014 15.4997 19.0922 15.4997 19.2911C15.4997 19.49 15.5787 19.6808 15.7194 19.8214C15.86 19.9621 16.0508 20.0411 16.2497 20.0411H18.4657V22.2561C18.4657 22.455 18.5447 22.6458 18.6854 22.7864C18.826 22.9271 19.0168 23.0061 19.2157 23.0061C19.4146 23.0061 19.6054 22.9271 19.746 22.7864C19.8867 22.6458 19.9657 22.455 19.9657 22.2561V20.0411H22.2497C22.4486 20.0411 22.6394 19.9621 22.78 19.8214C22.9207 19.6808 22.9997 19.49 22.9997 19.2911C22.9997 19.0922 22.9207 18.9014 22.78 18.7608C22.6394 18.6201 22.4486 18.5411 22.2497 18.5411H19.9657V16.2561Z" fill="#7C8A9C"/>
</svg>
